<?xml version="1.0" encoding="UTF-8"?>
<svg width="48px" height="48px" viewBox="0 0 48 48" version="1.1" xmlns="http://www.w3.org/2000/svg" xmlns:xlink="http://www.w3.org/1999/xlink">
    <title>蒸汽</title>
    <defs>
        <linearGradient x1="50%" y1="0%" x2="50%" y2="100%" id="linearGradient-1">
            <stop stop-color="#FDCD1E" offset="0%"></stop>
            <stop stop-color="#FA9E0D" offset="100%"></stop>
        </linearGradient>
        <rect id="path-2" x="0" y="0" width="48" height="48" rx="8"></rect>
    </defs>
    <g id="V1.0" stroke="none" stroke-width="1" fill="none" fill-rule="evenodd">
        <g id="02-3-1企业设置-能源品种" transform="translate(-680.000000, -221.000000)">
            <g id="编组-12备份-6" transform="translate(656.000000, 197.000000)">
                <g id="蒸汽" transform="translate(24.000000, 24.000000)">
                    <mask id="mask-3" fill="white">
                        <use xlink:href="#path-2"></use>
                    </mask>
                    <use id="蒙版" fill="url(#linearGradient-1)" xlink:href="#path-2"></use>
                    <path d="M35.5643546,20.8333268 C35.5646415,20.8300755 35.5653587,20.841742 35.564259,20.836339 C35.564259,22.8212743 33.8644364,24.4558313 31.894658,24.4558313 C29.9249275,24.4558313 28.3222622,22.8409257 28.3222622,20.8560383 C28.3222622,20.6830485 28.3378495,20.4991095 28.3699324,20.2936065 C28.7063969,17.448217 31.6341693,14.3574957 31.7584848,14.227347 C31.7935753,14.1905289 31.8420772,14.1694861 31.8929367,14.1690144 C31.9494046,14.1698272 31.9924369,14.1887136 32.0283449,14.2248129 C32.1725031,14.3700707 35.6588821,17.8246538 35.5643546,20.8333268 Z M31.0354948,30.2190479 C31.0359729,30.2119237 31.0375986,30.2370736 31.0353513,30.225455 C31.0353513,34.4891403 27.3804292,38 23.1447148,38 C18.9092395,38 15.4633107,34.5312642 15.4633107,30.2675788 C15.4633107,29.8960668 15.4969237,29.5009828 15.5657275,29.0596629 C16.2892913,22.9476936 22.5843868,16.3088659 22.8519997,16.0292517 C22.9274788,15.9502114 23.0316997,15.9050329 23.1409853,15.90398 C23.2622407,15.9056535 23.3548558,15.9461994 23.4321226,16.0238009 C23.7422896,16.3359283 31.2387506,23.7563656 31.0354948,30.2190479 L31.0354948,30.2190479 Z M20.2420924,16.6673247 C20.2420924,18.6523078 18.542222,20.2867213 16.572348,20.2867213 C14.6025696,20.2867213 13,18.6719592 13,16.6870239 C13,16.5140342 13.0155394,16.3300951 13.0476224,16.1245921 C13.3840869,13.2791548 16.3117159,10.1885292 16.4362226,10.0583805 C16.4713042,10.0216003 16.5197537,10.000548 16.5705789,10 C16.626999,10.0008128 16.6701269,10.0196992 16.706035,10.0557985 C16.8502887,10.2011042 20.33662,13.6556872 20.2421402,16.6643124 C20.2423793,16.6611089 20.2430487,16.6727754 20.2420924,16.6673247 Z" id="形状" fill="#FFFFFF" fill-rule="nonzero"></path>
                </g>
            </g>
        </g>
    </g>
</svg>