<?xml version="1.0" encoding="UTF-8"?>
<svg width="1024px" height="1024px" viewBox="0 0 1024 1024" version="1.1" xmlns="http://www.w3.org/2000/svg" xmlns:xlink="http://www.w3.org/1999/xlink">
    <title>icon/regular/pay-circle-3</title>
    <g id="icon/regular/pay-circle-3" stroke="none" stroke-width="1" fill="none" fill-rule="evenodd">
        <rect id="矩形备份-8" x="0" y="0" width="1024" height="1024"></rect>
        <circle id="椭圆形" fill="#DEE2EB" cx="512" cy="512" r="448"></circle>
        <path d="M512,64 C759.45,64 960,264.55 960,512 C960,759.45 759.45,960 512,960 C264.55,960 64,759.449999 64,512 C64,264.550001 264.55,64 512,64 Z M512,128 C460.16,128 409.890909,138.123636 362.501817,158.196364 C316.770908,177.483636 275.665454,205.236364 240.407272,240.494545 C205.149091,275.84 177.483636,316.858182 158.10909,362.589091 C138.123636,409.890909 128,460.16 128,512 C128,563.84 138.123636,614.109091 158.196364,661.498183 C177.483636,707.229092 205.236364,748.334546 240.494545,783.592728 C275.84,818.850909 316.858182,846.516364 362.589091,865.89091 C409.890909,885.876364 460.16,896 512,896 C563.84,896 614.109091,885.876364 661.498183,865.803636 C707.229092,846.516364 748.334546,818.763636 783.592728,783.505455 C818.850909,748.16 846.516364,707.141818 865.89091,661.410909 C885.876364,614.109091 896,563.84 896,512 C896,460.16 885.876364,409.89091 865.803636,362.501817 C846.516364,316.770908 818.763636,275.665454 783.505455,240.407272 C748.16,205.149091 707.141818,177.483636 661.410909,158.10909 C614.109091,138.123636 563.84,128 512,128 Z M623.722871,292.958369 C637.000697,306.236195 637.000697,327.763805 623.722871,341.041631 L542.763,422 L672,422 C689.673112,422 704,436.326888 704,454 C704,471.673112 689.673112,486 672,486 L544,486 L544,550 L640,550 C657.673112,550 672,564.326888 672,582 C672,599.673112 657.673112,614 640,614 L544,614 L544,710 C544,727.673112 529.673112,742 512,742 C494.326888,742 480,727.673112 480,710 L480,614 L384,614 C366.326888,614 352,599.673112 352,582 C352,564.326888 366.326888,550 384,550 L480,550 L480,486 L352,486 C334.326888,486 320,471.673112 320,454 C320,436.326888 334.326888,422 352,422 L481.236,422 L400.277129,341.041631 C386.999303,327.763805 386.999303,306.236195 400.277129,292.958369 C413.554954,279.680544 435.082564,279.680544 448.36039,292.958369 L511.999293,356.597273 L575.63961,292.958369 C588.917436,279.680544 610.445046,279.680544 623.722871,292.958369 Z" id="形状结合" fill="#4A5975"></path>
    </g>
</svg>