<?xml version="1.0" encoding="UTF-8"?>
<svg width="14px" height="14px" viewBox="0 0 14 14" version="1.1" xmlns="http://www.w3.org/2000/svg" xmlns:xlink="http://www.w3.org/1999/xlink">
    <title>icon/regular/close-circle-2</title>
    <g id="页面-2" stroke="none" stroke-width="1" fill="none" fill-rule="evenodd">
        <g id="用户管理-添加项目角色成员-新增备份" transform="translate(-1001.000000, -158.000000)">
            <g id="编组-2" transform="translate(400.000000, 133.000000)">
                <g id="icon/regular/close-circle-2" transform="translate(596.000000, 20.000000)">
                    <rect id="Rectangle-36-Copy" x="0" y="0" width="24" height="24"></rect>
                    <path d="M12,3.75 C12.4401019,3.75 12.796875,4.10677309 12.796875,4.546875 L12.796,11.203 L19.453125,11.203125 C19.8932269,11.203125 20.25,11.5598981 20.25,12 C20.25,12.4401019 19.8932269,12.796875 19.453125,12.796875 L12.796,12.796 L12.796875,19.453125 C12.796875,19.8932269 12.4401019,20.25 12,20.25 C11.5598981,20.25 11.203125,19.8932269 11.203125,19.453125 L11.203,12.796 L4.546875,12.796875 C4.10677309,12.796875 3.75,12.4401019 3.75,12 C3.75,11.5598981 4.10677309,11.203125 4.546875,11.203125 L11.203,11.203 L11.203125,4.546875 C11.203125,4.10677309 11.5598981,3.75 12,3.75 Z" id="形状结合" fill="#4A5975" transform="translate(12.000000, 12.000000) rotate(-315.000000) translate(-12.000000, -12.000000) "></path>
                </g>
            </g>
        </g>
    </g>
</svg>